/* XPM */
static char *_31937e406f14ef0e502f7988a85f97c4ohavd2P96QDVXhT[] = {
/* columns rows colors chars-per-pixel */
"32 32 10 1 ",
"  c None",
"u c #000000",
". c #5A2314",
"X c #724930",
"o c #190657",
"O c #D76E35",
"+ c #95714B",
"@ c #AF0000",
"# c #3F3B93",
"$ c #AF0000",
/* pixels */
"              ####              ",
" uuuuuuuuuu ##X++.oo  uuuuuuuuu ",
" uuuuuuuu ##$$X$$.XXoo uuuuuuuu ",
" uuuuuu #$$$$XXX.XXXXo uuuuuuuu ",
" uuuuuu #$$+XXX...XX$$Xo uuuuuu ",
" uuuuu #$$XXX.OOOO.XXX+Xo uuuuu ",
"      #$$XXXXO@@@@OXXXX+Xo      ",
" uuu #$$XXXXXO@@$$OXXXXX+Xo uuu ",
" uu #$$XXXXXXO@$$$OXXXXXX+Xo uu ",
" uu #+XXX..XXO@$$$OXX..XXX+o uu ",
"   #$$XXOOO.X.@$$@.X.OOOXX+Xo   ",
"   #+XXO@@@OXXO$$OXXO@@@OXX+o   ",
"  #$$X$$$$$$$$$$$$$$$$$$$$X+Xo  ",
"  #+XXO@$$$$$$$$$$$$$$$$$OXXXo  ",
"  #+X.O$$$$$$$$$$$$$$$$$$@.XXo  ",
" o$$X.@$$$$$$$$$$$$$$$$$$@.XXXo ",
" o+XXO@$$$$$$$$$$$$$$$$$$$OXXXo ",
" o+XXO@$$$$$$$$$$$$$$$$$$$OXXXo ",
" o+X.O$$$$$$$$$$$$$$$$$$$$@.XXo ",
" oXX.@$$$$$$$$$$$$$$$$$$$$@.XXo ",
" oXXO@$$$$$$$$$$$$$$$$$$$$$OXXo ",
" oXXO@$$$$$$$$$$$$$$$$$$$$$OXXo ",
" oXXO@$$$$$$$$$$$$$$$$$$$$$OXXo ",
" oXXO@$$$$$$$$$$$$$$$$$$$$$OXXo ",
" oXXO@$$$$$$$$$$$$$$$$$$$$$OXXo ",
" oXXO@$$$$$$$$$$$$$$$$$$$$$OXXo ",
" oXXO@$$$$$$$$$$$$$$$$$$$$$OXXo ",
" oXXO@$$$$$$$$$$$$$$$$$$$$$OXXo ",
" o..OO@@@@@@@@O..OO@@@@@@@@O..o ",
" oX++++++++++++++++++++++++++Xo ",
" oXXXXXXXXXXXXXXXXXXXXXXXXXXXXo ",
" oooooooooooooooooooooooooooooo "
};
