/* XPM */
static char *_8f7e3793413487daed815dc324c7f70xPx4fc7aw8bEvE8S[] = {
/* columns rows colors chars-per-pixel */
"32 32 11 1 ",
"  c None",
". c black",
"X c #222222",
"o c #323234",
"O c #400000",
"+ c #5C0000",
"@ c #444444",
"# c #545456",
"$ c #646466",
"% c #C70000",
"& c #C70000",
/* pixels */
"                                ",
"                                ",
"              XXXXX             ",
"            XXoooooXX           ",
"           Xoo@@@@@ooX          ",
"          Xo@@@###@@@oX         ",
"         Xo@@##$$$##@@oX        ",
"        Xo@@##$$$$$##@@oX       ",
"        Xo@###@@@@@###@oX       ",
"       Xo@#@@@ooooo@@@#@oX      ",
"       X@@@ooXXXXXXXoo@@@X      ",
"      Xo@ooX.........Xoo@oX     ",
"     XX@ooX+++O...O+++Xoo@XX    ",
"     XoooX+%&%+OOO+%&%+XoooX    ",
"    Xoooo.+%&&%OOO%&&%+.ooooX   ",
"   ooo@oX.O+%%+OOO+%%+O.Xo@ooo  ",
"   o@@ooX..O++OO.OO++O..Xoo@@o  ",
"  o@@@oXXX..OOO...OOO..XXXo@@@o ",
"  o@@@@XoXX...........XXoX@@@@o ",
" o@o@#@oooXXX.......XXXooo@#@o@o",
" oo@##ooooXooXXXXXXXooXoooo##@oo",
"  @##@o@@oooooXoooXooooo@@o@##@ ",
"  ##@@@@@ooo@@ooooo@@ooo@@@@@## ",
"  #@#@@#@@o@@@@ooo@@@@o@@#@@#@# ",
"  # #@###@@@#@@@@@@@#@@@###@# # ",
"    #####@@##@@@@@@@##@@#####   ",
"    #####@#####@@@#####@#####   ",
"     ## ################# ##    ",
"     #  #################  #    ",
"         ###############        ",
"          #  #######  #         ",
"              #####             "
};
