/* XPM */
static char *_87599f0f9614df6ead498d74e2f8947OJ3vhfrOLLPwxBiw[] = {
/* columns rows colors chars-per-pixel */
"32 32 17 1 ",
"  c None",
". c #003B05",
"X c #003C11",
"o c #006D1A",
"O c #452850",
"+ c #6D3E7D",
"@ c #61517C",
"# c #009E21",
"$ c #00D027",
"% c #795693",
"& c #897791",
"* c #975CB8",
"= c #9971A5",
"- c #BF7ECE",
"; c #C07ECE",
": c #AC85B1",
"> c #D797DA",
/* pixels */
"                                ",
"                                ",
"                                ",
"                                ",
"             OOOOOOO            ",
"           OO+*****+OO          ",
"          O+*-------*+O         ",
"          O*->>>>>>>-*O         ",
"         O+->>>>>>>>>-+O        ",
"     OO  O*->>>>>>>>>-*O  OO    ",
"    O*;+OO*->>>>>>>>>-*OO+;*O   ",
"     O*;*O*->>>>>>>>>-*O*;*O    ",
"      O+*O@XXX&>>>&XXX@O*+O     ",
"       O+OX..#o&>&o#..XO+O      ",
"        OO%..$#X:X#$..%OO       ",
"         O+=...>>>...=+O        ",
"          O*->>>>>>>-*O         ",
"          OO+*-----*+OO         ",
"         O**OOOOOOOOO**O        ",
"        O*>-->>>>>>>-->*O       ",
"       O+>-O->>>>>>>-O->+O      ",
"       O>>+O-->>>>>--O+>>O      ",
"       O>-OO*-------*OO->O      ",
"        OO O*>+***+>*O OO       ",
"           O+-*OOO*-+O          ",
"            O**O O**O           ",
"            O>-O O->O           ",
"            O>>O O>>O           ",
"             OO   OO            ",
"                                ",
"                                ",
"                                "
};
