/* XPM */
static char *floor_xpm[] = {
/* columns rows colors chars-per-pixel */
"32 32 3 1 ",
"  c #000000", /* Black for the base */
". c #080808", /* Dark gray for subtle details */
"X c #000000", /* White for cracks and highlights */
/* pixels */
"                                ",
"   ............   ............  ",
"  .............. .............. ",
"  .............. .............. ",
"   ............   ............  ",
"      .......       .......     ",
"                                ",
"     .......         .......    ",
"  .............. .............. ",
" ................. ............ ",
"  .............. .............. ",
"     .........     ..........   ",
"                                ",
"   ............   ............. ",
"  .............. .............. ",
"  .............. .............. ",
"   ............   ............  ",
"     .......         .......    ",
"                                ",
"   .........       ...........  ",
"  .............. .............. ",
" ............... .............. ",
"  .............. .............. ",
"    ..........      ..........  ",
"                                ",
"   ............   ............  ",
"  ............... ............. ",
" ............... .............. ",
"  ............... ............. ",
"   .............   ............ ",
"                                ",
"                                "
};
